<svg width="109" height="36" viewBox="0 0 109 36" fill="none" xmlns="http://www.w3.org/2000/svg">
<path d="M30.9433 25.2095V35.5703H0.429768V34.7586C2.73977 34.7586 4.24397 32.6578 4.24397 29.4111V7.01856C4.24397 4.10609 2.31 2.76923 0 2.76923V1.95756H17.0296V2.76923C14.7196 2.76923 12.0335 3.5809 12.0335 7.01856V34.7586H13.9675C13.9675 34.7586 28.2035 34.7586 30.0301 25.2095H30.9433Z" fill="white"/>
<path d="M47.3821 34.5615V35.3732H36.3693V34.5615C38.4107 33.9886 38.5181 31.9833 38.5181 29.5483V18.9488C38.5181 17.3255 37.9809 16.657 35.7783 15.6066V14.795L45.1795 12.8851V29.5483C45.1795 32.222 45.4481 34.0841 47.3821 34.5615ZM41.3116 9.06553C39.2702 9.06553 37.6586 7.63316 37.6586 5.81884C37.6586 4.00452 39.2702 2.57216 41.3116 2.57216C43.353 2.57216 45.0183 4.00452 45.0183 5.81884C45.0183 7.63316 43.353 9.06553 41.3116 9.06553Z" fill="white"/>
<path d="M79.1311 35.1883V35.5703H68.1183V35.1883C70.1597 34.6631 70.2134 32.6101 70.2134 30.1751V18.2387C70.2134 16.5677 69.5151 14.3236 67.5274 14.3236H60.5974V30.1751C60.5974 32.8011 60.9197 34.7109 62.7999 35.1883V35.5703H51.7871V35.1883C53.8285 34.6154 53.936 32.6101 53.936 30.1751V14.3236H50.4978L50.3904 13.5119H53.936V12.4138C53.936 3.38994 58.7709 2.28882e-05 68.2795 2.28882e-05C72.2548 2.28882e-05 75.1558 1.71886 75.9616 3.00798C76.66 4.15387 76.8748 5.77721 76.2302 6.97084C75.3169 8.68968 72.9532 9.40585 71.0193 8.54643C69.0853 7.68702 68.2795 5.63397 69.2465 3.91514C69.7299 3.05572 70.5358 2.48278 71.5028 2.24405C72.6309 2.00532 71.0193 0.811694 68.2795 0.811694C66.829 0.811694 60.5974 0.859448 60.5974 11.1724V13.5119H76.9286V30.1751C76.9286 32.8011 77.1972 34.7586 79.1311 35.1883Z" fill="white"/>
<path d="M108.087 32.2759L109 32.6101C108.57 34.1379 106.099 36 102.715 36C102.715 36 97.9334 36 97.3425 32.1326C96.5366 34.2334 93.3671 36 89.5529 36C89.5529 36 83.375 36 83.375 31.13C83.375 25.9257 87.8876 25.4483 97.2888 23.3475V20.3873C97.2888 15.4218 94.1729 12.939 90.4662 14.6579C88.7471 15.4218 88.5322 16.2334 88.9083 16.2812C89.7141 16.3767 90.4125 16.7109 90.896 17.3316C91.8629 18.573 91.4869 20.244 90.0901 21.1035C88.6934 21.9151 86.8131 21.6287 85.8462 20.3873C85.2015 19.4801 85.1478 18.3342 85.685 17.5226C86.2222 16.7109 86.9206 15.4218 89.8752 14.0372C92.2927 12.8913 95.0862 13.0822 95.0862 13.0822C102.124 13.0822 104.058 16.9974 104.058 22.6313V29.7454C104.058 29.7454 104.004 33.0875 106.636 33.0875C106.636 33.0875 107.764 33.0875 108.087 32.2759ZM97.2888 24.2069C92.0241 25.2573 90.2513 27.5013 90.2513 29.9363C90.2513 29.9363 90.2513 33.0875 93.7432 33.0875C95.5697 33.0875 96.8053 31.7984 97.2888 30.6525V24.2069Z" fill="white"/>
<path d="M41.5 10C44.5376 10 47 7.76142 47 5C47 2.23858 44.5376 0 41.5 0C38.4624 0 36 2.23858 36 5C36 7.76142 38.4624 10 41.5 10Z" fill="white"/>
</svg>
