<svg width="95" height="32" viewBox="0 0 95 32" fill="none" xmlns="http://www.w3.org/2000/svg">
<path d="M26.969 22.4084V31.618H0.374568V30.8965C2.38788 30.8965 3.69887 29.0291 3.69887 26.1432V6.23866C3.69887 3.6498 2.01331 2.46148 0 2.46148V1.73999H14.8423V2.46148C12.829 2.46148 10.4879 3.18296 10.4879 6.23866V30.8965H12.1735C12.1735 30.8965 24.5811 30.8965 26.173 22.4084H26.969Z" fill="#556B2F"/>
<path d="M41.2962 30.7214V31.4429H31.6979V30.7214C33.4771 30.2121 33.5707 28.4296 33.5707 26.2651V16.8434C33.5707 15.4004 33.1025 14.8063 31.1829 13.8726V13.1511L39.3766 11.4535V26.2651C39.3766 28.6418 39.6107 30.297 41.2962 30.7214ZM36.0054 8.05826C34.2262 8.05826 32.8216 6.78505 32.8216 5.17232C32.8216 3.55959 34.2262 2.28638 36.0054 2.28638C37.7846 2.28638 39.2361 3.55959 39.2361 5.17232C39.2361 6.78505 37.7846 8.05826 36.0054 8.05826Z" fill="#556B2F"/>
<path d="M68.9676 31.2785V31.618H59.3693V31.2785C61.1485 30.8117 61.1953 28.9867 61.1953 26.8223V16.2122C61.1953 14.7268 60.5866 12.7321 58.8543 12.7321H52.8143V26.8223C52.8143 29.1565 53.0953 30.8541 54.734 31.2785V31.618H45.1357V31.2785C46.9149 30.7692 47.0085 28.9867 47.0085 26.8223V12.7321H44.012L43.9183 12.0106H47.0085V11.0345C47.0085 3.01326 51.2224 0 59.5097 0C62.9745 0 65.5029 1.52785 66.2052 2.67374C66.8138 3.69231 67.0011 5.13528 66.4393 6.19629C65.6433 7.72414 63.5832 8.36073 61.8976 7.59681C60.2121 6.83288 59.5098 5.00795 60.3525 3.4801C60.7739 2.71618 61.4762 2.20689 62.319 1.99469C63.3023 1.78249 61.8976 0.721485 59.5097 0.721485C58.2456 0.721485 52.8143 0.763934 52.8143 9.93104V12.0106H67.0479V26.8223C67.0479 29.1565 67.2821 30.8965 68.9676 31.2785Z" fill="#556B2F"/>
<path d="M94.2039 28.6898L94.9999 28.9869C94.6253 30.3449 92.4716 32.0001 89.5218 32.0001C89.5218 32.0001 85.3548 32.0001 84.8397 28.5625C84.1374 30.4298 81.375 32.0001 78.0507 32.0001C78.0507 32.0001 72.6663 32.0001 72.6663 27.6712C72.6663 23.0452 76.5992 22.6208 84.7929 20.7534V18.1221C84.7929 13.7083 82.0773 11.5015 78.8466 13.0293C77.3484 13.7084 77.1611 14.4298 77.4888 14.4723C78.1911 14.5572 78.7998 14.8542 79.2212 15.406C80.064 16.5094 79.7362 17.9948 78.5189 18.7587C77.3015 19.4802 75.6628 19.2256 74.82 18.1221C74.2582 17.3158 74.2114 16.2972 74.6796 15.5757C75.1478 14.8542 75.7564 13.7084 78.3316 12.4776C80.4386 11.459 82.8733 11.6288 82.8733 11.6288C89.0068 11.6288 90.6924 15.1089 90.6924 20.1168V26.4404C90.6924 26.4404 90.6456 29.4113 92.9398 29.4113C92.9398 29.4113 93.923 29.4113 94.2039 28.6898ZM84.7929 21.5174C80.2045 22.4511 78.6594 24.4457 78.6594 26.6102C78.6594 26.6102 78.6594 29.4113 81.7027 29.4113C83.2946 29.4113 84.3715 28.2654 84.7929 27.2468V21.5174Z" fill="#556B2F"/>
<path d="M36.1697 8.88889C38.8171 8.88889 40.9633 6.89904 40.9633 4.44444C40.9633 1.98985 38.8171 0 36.1697 0C33.5223 0 31.3761 1.98985 31.3761 4.44444C31.3761 6.89904 33.5223 8.88889 36.1697 8.88889Z" fill="#8BAC65"/>
</svg>
